<svg version="1" xmlns="http://www.w3.org/2000/svg" width="962.667" height="962.667" viewBox="0 0 722.000000 722.000000"><path d="M339.9 1.4c-.2.2-5.1.7-10.9 1.1-5.7.3-10.7.8-11 1-.3.1-3.2.6-6.5.9-7.5.9-27.7 4.5-33 6-.5.2-2.8.6-5 1.1-2.2.4-4.4 1-5 1.4-.5.3-1.9.7-3 .9-2.2.3-15.2 4-17.5 4.9-.8.4-1.7.7-2 .8-14.6 3.7-51.3 20.4-70 31.7-5.8 3.5-11.6 7-12.9 7.8-1.4.8-3 1.8-3.5 2.3-16 11.6-26.6 19.6-32.6 24.6-12.7 10.8-36 34.9-47.3 49.1-9.2 11.5-27.8 38.1-30 43-.4.8-1.5 2.8-2.5 4.5-6 9.7-14.2 26.9-23.2 48-3.1 7.2-12.6 37.5-13.7 43.4-.2 1.4-1.3 6.1-2.3 10.6-1 4.4-2.1 9.8-2.4 12-.4 2.3-.8 5.2-1.1 6.5-.3 1.4-.7 4.9-1.1 7.8-.3 2.9-.7 6.2-.9 7.2-1.9 10-2.7 57.1-1.2 71 2.2 19.4 5.9 42.3 8.6 53 6.6 25.3 12.8 44.9 18.1 56.5.5 1.1 1.9 4.2 3.1 7 27.2 62.5 73.7 118.5 130 156.3 16.4 11 41.5 24.5 57.9 31.2 3 1.2 7.3 3 9.5 4 8.3 3.6 34.8 11.7 49 15.1 9.9 2.3 10.1 2.3 16.5 3.4 2.5.4 5.4.9 6.5 1.1 1.1.3 3.8.7 6 .9 2.2.3 5.1.7 6.5 1 8.3 1.5 18.7 2 45 1.9 31 0 42.8-.6 52.6-2.3 3.2-.6 7.7-1.3 9.9-1.6 5.2-.8 35.8-7.5 36.7-8.1.5-.3 1.7-.7 2.9-.9 4.1-.8 29.7-9.8 38.9-13.7 12-5.1 33.1-15.6 41.7-20.8 3.6-2.2 6.7-4 6.8-4 1 0 23.7-15.9 32.1-22.5 24.4-18.9 49.4-43.8 70-70 3.9-5 8.3-10.8 9.8-13 11.1-16.8 15.8-24.2 16.3-25.5.4-.8 1.7-3.2 3-5.3 9.7-15.6 28-58.5 30.7-72.3.3-1.1.9-3.2 1.6-4.8.6-1.6 1.3-4.1 1.5-5.5.2-1.4 1.6-8 3-14.6s2.8-14 3.1-16.5c.2-2.5.7-5.6.9-7 2.6-13.2 2.6-69.3 0-89-2.2-17.4-2.5-19.1-3.1-22-.2-1.4-.9-5-1.4-8-1.5-8.3-7.3-31.2-11.1-43-1.8-5.8-3.3-10.7-3.4-11-.1-.3-.5-1.4-1-2.5-.4-1.1-2.8-7.2-5.2-13.5-5-12.8-11.2-25.5-19.7-40.4-3.1-5.4-5.6-10-5.6-10.3 0-.2-.4-.9-1-1.6-.5-.7-5-7.3-9.9-14.7-22.5-33.9-53.4-65.6-87.6-89.7-10.7-7.6-29.8-19.3-31.4-19.3-.5 0-1.1-.4-1.3-.8-.5-1.4-26.2-13.6-39.9-19.1-21.3-8.4-46.8-15.8-67.9-19.7-12.4-2.3-18.7-3.2-28-4-3.6-.3-9.4-.9-13-1.3-6.3-.8-48.4-1.3-49.1-.7z"/></svg>